<svg width="24" height="24" viewBox="0 0 24 24" fill="none" xmlns="http://www.w3.org/2000/svg">
<g clip-path="url(#clip0_4_2286)">
<path d="M21.6733 18.5533C21.0305 17.9802 20.4676 17.3232 20 16.6C19.489 15.6019 19.183 14.5116 19.1 13.3933V10.1C19.1044 8.34373 18.4673 6.6463 17.3085 5.32663C16.1496 4.00697 14.5488 3.15589 12.8067 2.93332V2.07332C12.8067 1.83728 12.7129 1.6109 12.546 1.44399C12.3791 1.27709 12.1527 1.18332 11.9167 1.18332C11.6806 1.18332 11.4542 1.27709 11.2873 1.44399C11.1204 1.6109 11.0267 1.83728 11.0267 2.07332V2.94665C9.30016 3.18527 7.71864 4.04149 6.57501 5.35672C5.43138 6.67196 4.80315 8.35708 4.80666 10.1V13.3933C4.7237 14.5116 4.41768 15.6019 3.90666 16.6C3.44725 17.3216 2.89346 17.9785 2.25999 18.5533C2.18888 18.6158 2.13189 18.6927 2.0928 18.7789C2.05372 18.8651 2.03345 18.9587 2.03333 19.0533V19.96C2.03333 20.1368 2.10356 20.3064 2.22859 20.4314C2.35361 20.5564 2.52318 20.6267 2.69999 20.6267H21.2333C21.4101 20.6267 21.5797 20.5564 21.7047 20.4314C21.8298 20.3064 21.9 20.1368 21.9 19.96V19.0533C21.8999 18.9587 21.8796 18.8651 21.8405 18.7789C21.8014 18.6927 21.7444 18.6158 21.6733 18.5533ZM3.41999 19.2933C4.04012 18.694 4.58623 18.0225 5.04666 17.2933C5.69052 16.088 6.06578 14.7575 6.14666 13.3933V10.1C6.12022 9.31868 6.25127 8.54004 6.53202 7.81043C6.81277 7.08083 7.23747 6.41518 7.78082 5.85312C8.32418 5.29106 8.97509 4.8441 9.69478 4.53883C10.4145 4.23357 11.1882 4.07626 11.97 4.07626C12.7517 4.07626 13.5255 4.23357 14.2452 4.53883C14.9649 4.8441 15.6158 5.29106 16.1592 5.85312C16.7025 6.41518 17.1272 7.08083 17.408 7.81043C17.6887 8.54004 17.8198 9.31868 17.7933 10.1V13.3933C17.8742 14.7575 18.2495 16.088 18.8933 17.2933C19.3538 18.0225 19.8999 18.694 20.52 19.2933H3.41999Z" fill="#1B281B"/>
<path d="M12 22.8533C12.4199 22.8437 12.8229 22.6858 13.1377 22.4076C13.4525 22.1295 13.6587 21.7489 13.72 21.3333H10.2133C10.2763 21.7602 10.4922 22.1497 10.8209 22.4293C11.1495 22.7089 11.5685 22.8596 12 22.8533Z" fill="#1B281B"/>
</g>
<defs>
<clipPath id="clip0_4_2286">
<rect width="24" height="24" fill="white"/>
</clipPath>
</defs>
</svg>
