<svg width="24" height="25" viewBox="0 0 24 25" fill="none" xmlns="http://www.w3.org/2000/svg">
<g clip-path="url(#clip0_4_2256)">
<path d="M14.8488 16.593C17.2578 16.593 19.2174 14.6334 19.2174 12.2256C19.2174 9.81544 17.2572 7.85584 14.8488 7.85584C12.4398 7.85584 10.4796 9.81604 10.4796 12.2256C10.4796 14.6334 12.4398 16.593 14.8488 16.593ZM14.8488 8.57464C15.8163 8.57607 16.7438 8.96118 17.4278 9.6455C18.1118 10.3298 18.4964 11.2575 18.4974 12.225C18.4963 13.1923 18.1115 14.1196 17.4275 14.8035C16.7434 15.4875 15.816 15.8721 14.8488 15.873C13.8814 15.8721 12.954 15.4875 12.2699 14.8036C11.5858 14.1197 11.2008 13.1924 11.1996 12.225C11.2002 10.2126 12.837 8.57464 14.8488 8.57464ZM22.827 20.7282C22.6356 17.3178 19.5372 17.109 19.4862 17.1072L10.191 17.1078C10.1598 17.109 7.06078 17.3184 6.86998 20.748V23.3328C6.86998 23.4283 6.90791 23.5199 6.97542 23.5874C7.04293 23.6549 7.1345 23.6928 7.22998 23.6928H22.467C22.5625 23.6928 22.654 23.6549 22.7215 23.5874C22.789 23.5199 22.827 23.4283 22.827 23.3328V20.7282ZM22.1076 22.9728H7.59058L7.58998 20.7678C7.74358 18.0108 10.1304 17.832 10.2108 17.8266L19.4652 17.826C19.5666 17.8326 21.9528 18.0114 22.107 20.748L22.1076 22.9728ZM7.57078 12.2988H7.57318C8.31298 12.2934 8.95378 12.0282 9.47758 11.5092C10.002 10.9854 10.2672 10.3446 10.2672 9.60364C10.2672 8.85904 10.0014 8.21704 9.47758 7.69744C8.95318 7.17364 8.31238 6.90784 7.57198 6.90784C6.82738 6.90784 6.18538 7.17364 5.66698 7.69684C5.14258 8.21704 4.87678 8.85904 4.87678 9.60364C4.87678 10.344 5.14258 10.9854 5.66638 11.5086C6.18598 12.0282 6.82618 12.294 7.57078 12.2988ZM5.98618 8.01544C6.42418 7.57324 6.94378 7.35784 7.57258 7.35784C8.19778 7.35784 8.71738 7.57324 9.16078 8.01724C9.60298 8.45524 9.81838 8.97484 9.81838 9.60424C9.81838 10.23 9.60298 10.749 9.16078 11.1906C8.71858 11.6292 8.19838 11.8452 7.57258 11.85C6.94258 11.8452 6.42298 11.6304 5.98498 11.1912C5.54218 10.7496 5.32678 10.23 5.32678 9.60424C5.32678 8.97424 5.54218 8.45524 5.98618 8.01544Z" fill="black"/>
<path d="M7.22306 10.6234C7.26369 10.6591 7.31597 10.6787 7.37006 10.6786C7.40224 10.6785 7.43403 10.6716 7.46331 10.6582C7.49259 10.6449 7.51869 10.6255 7.53986 10.6012L9.06326 8.85522C9.1024 8.81027 9.12209 8.75161 9.11798 8.69214C9.11387 8.63267 9.08631 8.57727 9.04136 8.53812C8.9964 8.49898 8.93774 8.47929 8.87827 8.4834C8.8188 8.48751 8.7634 8.51507 8.72426 8.56002L7.34846 10.1368L6.67166 9.55182C6.64936 9.53252 6.62348 9.5178 6.59549 9.50849C6.5675 9.49919 6.53795 9.49549 6.50853 9.49761C6.47912 9.49973 6.4504 9.50762 6.42404 9.52083C6.39767 9.53405 6.37416 9.55232 6.35486 9.57462C6.33555 9.59692 6.32083 9.6228 6.31153 9.65079C6.30223 9.67878 6.29853 9.70833 6.30064 9.73775C6.30276 9.76716 6.31065 9.79588 6.32387 9.82224C6.33708 9.84861 6.35536 9.87212 6.37766 9.89142L7.22306 10.6234ZM12.0777 6.81342C12.0777 6.81342 12.1821 6.66342 12.4485 6.57342C12.6543 6.50382 12.7857 6.48282 12.7857 6.48282V4.73142C12.7857 4.27062 12.4449 3.87102 11.9253 3.87102H10.6089V4.57902H12.0777V6.81342ZM5.39546 5.60922H9.74006C9.96206 5.60922 10.1703 5.45322 10.1703 5.17062V4.14342C10.1703 3.75222 9.85886 3.43242 9.46826 3.43242H9.30146C9.10826 2.68242 8.37506 2.13342 7.56326 2.13342C6.75146 2.13342 6.01826 2.68242 5.82566 3.43242H5.66726C5.27666 3.43242 4.95686 3.75222 4.95686 4.14342V5.17062C4.95686 5.42502 5.14226 5.60922 5.39546 5.60922ZM7.56326 3.00222C8.04446 3.00222 8.43206 3.38982 8.43206 3.87102C8.43206 4.35222 8.04446 4.73982 7.56326 4.73982C7.4491 4.74006 7.33601 4.71775 7.2305 4.67417C7.12499 4.6306 7.02912 4.56661 6.94839 4.48589C6.86767 4.40516 6.80368 4.30929 6.76011 4.20378C6.71653 4.09826 6.69422 3.98518 6.69446 3.87102C6.69446 3.38982 7.08206 3.00222 7.56326 3.00222Z" fill="black"/>
<path d="M9.5712 14.4679H3.0576V4.57873H4.5264V3.87073H3.2106C2.7498 3.87073 2.3592 4.26973 2.3592 4.73113V14.3239C2.3592 14.7847 2.7498 15.1663 3.2106 15.1663H10.2474C10.2474 15.1669 9.7146 14.9461 9.5712 14.4679Z" fill="black"/>
</g>
<defs>
<clipPath id="clip0_4_2256">
<rect width="24" height="24" fill="white" transform="translate(0 0.933411)"/>
</clipPath>
</defs>
</svg>
