<svg width="24" height="25" viewBox="0 0 24 25" fill="none" xmlns="http://www.w3.org/2000/svg">
<path d="M22.4232 9.61824C22.3294 9.32998 22.1524 9.07592 21.9145 8.88807C21.6766 8.70022 21.3885 8.58698 21.0863 8.56261L15.5551 8.11636L13.4194 2.95168C13.3039 2.67026 13.1074 2.42953 12.8547 2.26012C12.6021 2.0907 12.3047 2.00024 12.0005 2.00024C11.6963 2.00024 11.399 2.0907 11.1463 2.26012C10.8937 2.42953 10.6971 2.67026 10.5816 2.95168L8.44788 8.11543L2.91381 8.56261C2.61117 8.58821 2.3228 8.70255 2.08485 8.89131C1.8469 9.08006 1.66994 9.33484 1.57615 9.62373C1.48236 9.91261 1.4759 10.2227 1.55759 10.5153C1.63928 10.8078 1.80548 11.0697 2.03538 11.2682L6.25413 14.9086L4.96881 20.3517C4.89693 20.6474 4.91453 20.9578 5.01938 21.2435C5.12423 21.5292 5.3116 21.7773 5.55771 21.9563C5.80382 22.1353 6.09757 22.2371 6.40167 22.2489C6.70576 22.2606 7.0065 22.1818 7.26569 22.0223L12.0001 19.1086L16.7373 22.0223C16.9965 22.1799 17.2967 22.2572 17.5998 22.2446C17.903 22.232 18.1956 22.1299 18.4409 21.9513C18.6861 21.7727 18.8731 21.5255 18.9782 21.2408C19.0832 20.9562 19.1017 20.6468 19.0313 20.3517L17.7413 14.9076L21.9601 11.2673C22.1918 11.0691 22.3595 10.8066 22.442 10.5131C22.5244 10.2195 22.5179 9.90808 22.4232 9.61824Z" fill="black"/>
</svg>
