<svg width="24" height="25" viewBox="0 0 24 25" fill="none" xmlns="http://www.w3.org/2000/svg">
<path d="M22.4232 9.61824C22.3294 9.32998 22.1524 9.07592 21.9145 8.88807C21.6766 8.70022 21.3885 8.58698 21.0863 8.56261L15.5551 8.11636L13.4194 2.95168C13.3039 2.67026 13.1074 2.42953 12.8547 2.26012C12.6021 2.0907 12.3047 2.00024 12.0005 2.00024C11.6963 2.00024 11.399 2.0907 11.1463 2.26012C10.8937 2.42953 10.6971 2.67026 10.5816 2.95168L8.44788 8.11543L2.91381 8.56261C2.61117 8.58821 2.3228 8.70255 2.08485 8.89131C1.8469 9.08006 1.66994 9.33485 1.57615 9.62373C1.48236 9.91261 1.4759 10.2227 1.55759 10.5153C1.63928 10.8078 1.80548 11.0697 2.03538 11.2682L6.25413 14.9086L4.96881 20.3517C4.89693 20.6474 4.91453 20.9578 5.01938 21.2435C5.12423 21.5292 5.3116 21.7773 5.55771 21.9563C5.80382 22.1353 6.09757 22.2371 6.40167 22.2489C6.70576 22.2606 7.00649 22.1818 7.26569 22.0223L12.0001 19.1086L16.7373 22.0223C16.9965 22.1799 17.2967 22.2572 17.5998 22.2446C17.903 22.232 18.1956 22.1299 18.4409 21.9513C18.6861 21.7727 18.8731 21.5255 18.9782 21.2408C19.0832 20.9562 19.1017 20.6468 19.0313 20.3517L17.7413 14.9076L21.9601 11.2673C22.1918 11.0691 22.3595 10.8066 22.442 10.5131C22.5244 10.2195 22.5179 9.90808 22.4232 9.61824ZM20.9851 10.1311L16.4194 14.0686C16.3153 14.1583 16.2379 14.2749 16.1955 14.4057C16.1532 14.5365 16.1476 14.6764 16.1794 14.8101L17.5744 20.6976C17.578 20.7057 17.5784 20.7149 17.5754 20.7233C17.5725 20.7317 17.5664 20.7386 17.5585 20.7426C17.5416 20.7557 17.5369 20.7529 17.5229 20.7426L12.3929 17.5879C12.2747 17.5153 12.1388 17.4768 12.0001 17.4768C11.8614 17.4768 11.7254 17.5153 11.6073 17.5879L6.47725 20.7445C6.46319 20.7529 6.45944 20.7557 6.44163 20.7445C6.43371 20.7405 6.42765 20.7335 6.42468 20.7252C6.42172 20.7168 6.42208 20.7076 6.42569 20.6995L7.82069 14.812C7.85248 14.6783 7.84691 14.5384 7.80458 14.4076C7.76226 14.2768 7.68481 14.1602 7.58069 14.0704L3.01506 10.1329C3.00381 10.1236 2.9935 10.1151 3.00288 10.0861C3.01225 10.057 3.01975 10.0607 3.03381 10.0589L9.02631 9.57511C9.16376 9.56333 9.29529 9.51386 9.40644 9.43215C9.51759 9.35044 9.60405 9.23966 9.65631 9.11199L11.9644 3.52355C11.9719 3.50761 11.9748 3.50011 11.9973 3.50011C12.0198 3.50011 12.0226 3.50761 12.0301 3.52355L14.3438 9.11199C14.3966 9.23971 14.4836 9.35037 14.5952 9.43176C14.7069 9.51315 14.8389 9.56211 14.9766 9.57324L20.9691 10.057C20.9832 10.057 20.9916 10.057 21.0001 10.0842C21.0085 10.1114 21.0001 10.1217 20.9851 10.1311Z" fill="black"/>
</svg>
